<svg xmlns="http://www.w3.org/2000/svg" xmlns:xlink="http://www.w3.org/1999/xlink" fill="none" height="1120" viewBox="0 0 1440 1120" width="1440"><linearGradient id="a" gradientUnits="userSpaceOnUse" x1="1957.5" x2="-857.692" y1="-112.778" y2="-499.064"><stop offset="0" stop-color="#f7f5fe" stop-opacity="0"/><stop offset="1" stop-color="#f7f5fe"/></linearGradient><linearGradient id="b" gradientUnits="userSpaceOnUse" x1="-207.476" x2="758.052" y1="459.372" y2="1829"><stop offset="0" stop-color="#f7f5fe"/><stop offset="1" stop-color="#f7f5fe" stop-opacity="0"/></linearGradient><clipPath id="c"><path d="m0 0h1440v1120h-1440z"/></clipPath><g clip-path="url(#c)"><path d="m0 0h1440v1120h-1440z" fill="#caecff"/><path d="m2429.72-66.5398c285.05-258.5622 189.8-608.8282 913.78-232.2212 620.28 322.6677-68.02 1019.417-642.95 1257.679s-838.07 132.202-948.62-116.529c-110.55-248.734-271.62-1091.738-1709.9343-412.711-1438.3157 679.022-908.6137-1942.308-84.5179-1132.65 1067.7022 1048.994 2084.1422 988.496 2472.2422 636.4322z" fill="url(#a)"/><path d="m3341.38 1330c356.52-150.89 363.32-397.96 970.83-77.22 520.5 274.8-361.28 688.47-998.68 799.84-637.41 111.36-867.11 15.78-904.72-163.47-37.62-179.25 46.18-767.84-1572.359-432.72s-338.593-1403.7715 243.059-779.135c753.58 809.285 1776.44 858.155 2261.87 652.705z" fill="url(#b)"/></g></svg>